# xmcd CD database file
#
# Track frame offsets:
#	150
#	31278
#	59117
#	83665
#	113925
#	139935
#	163172
#	201584
#
# Disc length: 2981 seconds
#
# Revision: 0
# Processed by: cddbd v1.5.2PL0 Copyright (c) Steve Scherf et al.
# Submitted via: CDex 1.70beta2
#
DISCID=770ba308
DTITLE=Excess Luggage and Vigleik Storaas - Hand Luggage Only
DYEAR=2009
DGENRE=Jazz
TTITLE0=Annoying You
TTITLE1=Jimmy's Thai Kitchen
TTITLE2=Corrupted Mirror
TTITLE3=After All
TTITLE4=Fast Swing
TTITLE5=Kunming
TTITLE6=If I Should Lose You
TTITLE7=Laat
EXTD=YEAR: 2009
EXTT0=
EXTT1=
EXTT2=
EXTT3=
EXTT4=
EXTT5=
EXTT6=
EXTT7=
PLAYORDER=
